# xmcd
#
# Track frame offsets: 
#        150
#        13750
#        29750
#        46087
#        61562
#        78500
#        94137
#        112287
#        129487
#        149962
#        161725
#        177700
#        192962
#        210675
#        223750
#        237600
#
# Disc length: 3295 seconds
#
# Revision: 8
# Processed by: cddbd v1.5.2PL0 Copyright (c) Steve Scherf et al.
# Submitted via: ExactAudioCopyFreeDBPlugin 1.0
#
DISCID=fb0cdd10
DTITLE=Various Artist - American Style - The Best Of New Country Musi
DTITLE=c [CD 2)
DYEAR=1997
DGENRE=Country
TTITLE0=Ricochet - Daddy's Money
TTITLE1=Johnny Cash - Johnny 99
TTITLE2=Exile - Hang On To Your Heart
TTITLE3=Charlie Daniels Band - Boogie Woogie Fiddle Country Blues
TTITLE4=Rodney Crowell - Lovin' All Night
TTITLE5=Darden Smith - 2000 Years
TTITLE6=James McMurtry - Talkin' At The Texaco
TTITLE7=Ty Herndon - Living In A Moment
TTITLE8=Patty Loveless - Lonely Too Long
TTITLE9=Dixiana - That's What I'm Working On Tonight
TTITLE10=James Bonamy - I Don't Think I Will
TTITLE11=Shenandoah - Mama Knows
TTITLE12=Collin Raye - Little Rock
TTITLE13=Russell Smith - Not Made Of Stone
TTITLE14=Ricky Van Shelton - I'll Leave This World Loving You
TTITLE15=Bobbie Cryner - I Don't Care
EXTD=YEAR: 1997
EXTT0=
EXTT1=
EXTT2=
EXTT3=
EXTT4=
EXTT5=
EXTT6=
EXTT7=
EXTT8=
EXTT9=
EXTT10=
EXTT11=
EXTT12=
EXTT13=
EXTT14=
EXTT15=
PLAYORDER=
